<?xml version="1.0" encoding="utf-8"?>
<!-- Generator: Adobe Illustrator 16.0.0, SVG Export Plug-In . SVG Version: 6.00 Build 0)  -->
<!DOCTYPE svg PUBLIC "-//W3C//DTD SVG 1.1//EN" "http://www.w3.org/Graphics/SVG/1.1/DTD/svg11.dtd">
<svg version="1.1" id="Layer_1" xmlns="http://www.w3.org/2000/svg" xmlns:xlink="http://www.w3.org/1999/xlink" x="0px" y="0px"
	 width="94px" height="94px" viewBox="0 0 94 94" enable-background="new 0 0 94 94" xml:space="preserve">
<path fill="#F3F2FF" d="M17.644,26.246h57.738c4.31,0,7.803,4.052,7.803,9.048v30.764c0,4.997-3.493,9.049-7.803,9.049H17.644
	c-4.31,0-7.803-4.052-7.803-9.049V35.294C9.841,30.298,13.334,26.246,17.644,26.246z"/>
<g>
	<g>
		<path fill="#343399" d="M72.296,57.313h-2.485V26.528c0-1.433-1.366-2.599-3.046-2.599h-5.556c-1.681,0-3.047,1.166-3.047,2.599
			v30.785h-6.312V40.476c0-1.433-1.366-2.599-3.047-2.599h-5.556c-1.68,0-3.047,1.166-3.047,2.599v16.837H33.89v-8.72
			c0-1.433-1.366-2.599-3.047-2.599h-5.555c-1.68,0-3.047,1.166-3.047,2.599v8.72h-2.62c-0.626,0-1.133,0.434-1.133,0.967
			c0,0.534,0.507,0.967,1.133,0.967h52.675c0.627,0,1.134-0.433,1.134-0.967C73.43,57.746,72.923,57.313,72.296,57.313z
			 M31.623,57.313h-7.116v-8.72c0-0.367,0.35-0.665,0.78-0.665h5.555c0.431,0,0.78,0.298,0.78,0.665V57.313z M49.583,57.313h-7.115
			V40.476c0-0.367,0.35-0.665,0.78-0.665h5.556c0.43,0,0.779,0.298,0.779,0.665V57.313z M67.545,57.313H60.43V26.528
			c0-0.367,0.35-0.666,0.779-0.666h5.556c0.43,0,0.78,0.299,0.78,0.666V57.313L67.545,57.313z"/>
	</g>
</g>
<g>
	<g>
		<path fill="#343399" d="M69.809,10.769c0.016-0.264-0.094-0.532-0.328-0.733c-0.236-0.202-0.553-0.294-0.861-0.281
			c-0.019-0.001-0.036-0.002-0.054-0.002h-6.857c-0.625,0-1.134,0.433-1.134,0.967s0.509,0.967,1.134,0.967h4.233l-11.203,9.556
			l-4.226-3.604c-0.212-0.181-0.499-0.283-0.801-0.283c-0.301,0-0.589,0.102-0.801,0.283L28.537,35.016
			c-0.442,0.377-0.442,0.989,0,1.367c0.222,0.188,0.512,0.283,0.802,0.283s0.58-0.094,0.801-0.283l19.572-16.694l4.226,3.604
			c0.441,0.377,1.16,0.377,1.603,0l12.005-10.24v3.269c0,0.534,0.507,0.967,1.133,0.967s1.133-0.433,1.133-0.967v-5.506
			C69.811,10.8,69.809,10.785,69.809,10.769z"/>
	</g>
</g>
<g>
	<g>
		<ellipse cx="27.519" cy="39.072" rx="1.133" ry="0.967"/>
	</g>
</g>
</svg>
