<svg id="line" xmlns="http://www.w3.org/2000/svg" viewBox="0 0 400 400"><defs><style>.cls-1{fill:#c4a2fc;}</style></defs><title>client-area-ucartz-icon</title><path class="cls-1" d="M225,227h24v24H225Z" transform="translate(-57 -59)"/><path class="cls-1" d="M265,227h24v24H265Z" transform="translate(-57 -59)"/><path class="cls-1" d="M265,339h72v88H265Z" transform="translate(-57 -59)"/><path class="cls-1" d="M177,339h72v88H177Z" transform="translate(-57 -59)"/><path class="cls-1" d="M225,267h24v24H225Z" transform="translate(-57 -59)"/><path class="cls-1" d="M265,267h24v24H265Z" transform="translate(-57 -59)"/><path class="cls-1" d="M452.58,171.84l-192-96a8,8,0,0,0-7.15,0l-192,96A8,8,0,0,0,57,179v48a8,8,0,0,0,11.58,7.2L257,139.94,445.42,234.2A8,8,0,0,0,457,227V179A8,8,0,0,0,452.58,171.84Z" transform="translate(-57 -59)"/><path class="cls-1" d="M449,443H425V239.94l-168-84-168,84V443H65a8,8,0,0,0,0,16H449a8,8,0,0,0,0-16ZM209,219a8,8,0,0,1,8-8h80a8,8,0,0,1,8,8v80a8,8,0,0,1-8,8H217a8,8,0,0,1-8-8ZM353,443H161V331a8,8,0,0,1,8-8H345a8,8,0,0,1,8,8Z" transform="translate(-57 -59)"/><path class="cls-1" d="M409,83a24,24,0,0,0-24-24H353a24,24,0,0,0-24,24v9.17l80,40Z" transform="translate(-57 -59)"/></svg>