<svg id="line" xmlns="http://www.w3.org/2000/svg" viewBox="0 0 277.88 340"><defs><style>.cls-1{fill:#c4a2fc;}</style></defs><title>knowledgebase-ucartz-icon</title><path class="cls-1" d="M162.33,398a6.8,6.8,0,0,1,0-13.6H393.88v-34H157.1c-20.28-.28-37.66,14.83-40.75,35.43-2.89,22.34,12.39,42.85,34.12,45.82a38.61,38.61,0,0,0,5.24.36H387.26a6.71,6.71,0,0,0,6.62-6.8V398Z" transform="translate(-116 -92)"/><path class="cls-1" d="M283.33,150.48a36.91,36.91,0,0,0-28.38-17.68,36.91,36.91,0,0,0-28.38,17.68,6.55,6.55,0,0,1-5.36,2.72h-25.8V275.6h25.8a6.55,6.55,0,0,1,5.36,2.72A36.91,36.91,0,0,0,254.95,296a36.91,36.91,0,0,0,28.38-17.68,6.55,6.55,0,0,1,5.36-2.72h25.8V153.2h-25.8A6.56,6.56,0,0,1,283.33,150.48Z" transform="translate(-116 -92)"/><path class="cls-1" d="M374,92H162.33C136.75,92,116,113.31,116,139.6V355.36a52.33,52.33,0,0,1,39.69-18.56H393.88V112.4C393.88,101.13,385,92,374,92ZM327.72,282.4a6.71,6.71,0,0,1-6.62,6.8H291.86a47.76,47.76,0,0,1-36.92,20.4A47.76,47.76,0,0,1,218,289.2H188.79a6.71,6.71,0,0,1-6.62-6.8v-136a6.71,6.71,0,0,1,6.62-6.8H218a47.76,47.76,0,0,1,36.92-20.4,47.76,47.76,0,0,1,36.92,20.4h29.24a6.71,6.71,0,0,1,6.62,6.8Z" transform="translate(-116 -92)"/></svg>