<?xml version="1.0" encoding="utf-8"?>
<!-- Generator: Adobe Illustrator 16.0.0, SVG Export Plug-In . SVG Version: 6.00 Build 0)  -->
<!DOCTYPE svg PUBLIC "-//W3C//DTD SVG 1.1//EN" "http://www.w3.org/Graphics/SVG/1.1/DTD/svg11.dtd">
<svg version="1.1" id="Layer_1" xmlns="http://www.w3.org/2000/svg" xmlns:xlink="http://www.w3.org/1999/xlink" x="0px" y="0px"
	 width="94px" height="94px" viewBox="0 0 94 94" enable-background="new 0 0 94 94" xml:space="preserve">
<path fill="#F3F2FF" d="M17.644,26.246h57.738c4.31,0,7.803,4.052,7.803,9.048v30.764c0,4.997-3.493,9.049-7.803,9.049H17.644
	c-4.31,0-7.803-4.052-7.803-9.049V35.294C9.841,30.298,13.334,26.246,17.644,26.246z"/>
<g id="Fast_Charging">
	<path fill="#343399" d="M22.313,45.667c2.136,0,3.867-1.979,3.867-4.421c0-2.441-1.731-4.421-3.867-4.421H20.38
		c-2.135,0-3.867,1.979-3.867,4.421c0,2.442,1.731,4.421,3.867,4.421H22.313z M18.446,41.246c0-1.221,0.866-2.21,1.934-2.21h1.933
		c1.068,0,1.934,0.99,1.934,2.21s-0.866,2.21-1.934,2.21H20.38C19.312,43.456,18.446,42.466,18.446,41.246z"/>
	<path fill="#343399" d="M56.146,20.246h-26.1c-2.132-0.004-3.863,1.969-3.867,4.407c-0.001,0.781,0.179,1.549,0.522,2.224h-2.455
		c-2.136,0-3.867,1.979-3.867,4.421c0,2.441,1.731,4.421,3.867,4.421h14.2c-0.087,0.365-0.164,0.729-0.232,1.105H31.98
		c-2.136,0-3.867,1.979-3.867,4.421c0,2.442,1.731,4.421,3.867,4.421h6.225c0.078,0.376,0.155,0.741,0.242,1.105h-14.2
		c-2.136,0-3.867,1.98-3.867,4.421s1.731,4.42,3.867,4.42h2.455c-1.07,2.109-0.442,4.813,1.402,6.036
		c0.59,0.392,1.26,0.597,1.942,0.597h26.1c10.144,0,18.367-9.402,18.367-21S66.29,20.246,56.146,20.246z M56.146,60.035h-26.1
		c-1.064-0.01-1.925-0.994-1.933-2.211c0.003-1.219,0.867-2.207,1.933-2.211c0.534,0,0.967-0.494,0.967-1.104
		s-0.433-1.105-0.967-1.105h-5.8c-1.064-0.009-1.926-0.993-1.934-2.21c0.003-1.22,0.867-2.207,1.934-2.211h15.351
		c0.262,0.056,0.531-0.017,0.744-0.199c0.338-0.293,0.472-0.803,0.329-1.26c-0.321-1.046-0.561-2.122-0.716-3.216
		c-0.089-0.559-0.54-0.944-1.034-0.884c-0.058,0.011-0.116,0.022-0.164,0.033H31.98c-1.066-0.003-1.93-0.991-1.934-2.21
		c0.008-1.217,0.869-2.202,1.934-2.21h6.535c0.123,0.077,0.257,0.126,0.396,0.144c0.503,0.043,0.952-0.359,1.035-0.928
		c0.156-1.117,0.398-2.215,0.725-3.283c0.172-0.578-0.097-1.206-0.602-1.403c-0.126-0.049-0.261-0.068-0.394-0.056H24.247
		c-1.066-0.004-1.93-0.991-1.934-2.21c0.008-1.217,0.869-2.202,1.934-2.211h5.8c0.534,0,0.967-0.495,0.967-1.105
		s-0.433-1.105-0.967-1.105c-1.066-0.003-1.93-0.991-1.933-2.21c0.008-1.217,0.869-2.201,1.933-2.21h26.1
		c9.076,0,16.434,8.413,16.434,18.79C72.58,51.623,65.223,60.035,56.146,60.035z"/>
	<path fill="#343399" d="M56.146,26.877c-6.94,0-12.567,6.433-12.567,14.369c0,7.936,5.626,14.368,12.567,14.368
		s12.566-6.432,12.566-14.368C68.707,33.313,63.084,26.884,56.146,26.877z M56.146,53.403c-5.873,0-10.633-5.442-10.633-12.158
		c0-6.715,4.76-12.158,10.633-12.158s10.633,5.443,10.633,12.158C66.775,47.959,62.018,53.398,56.146,53.403z"/>
	<path fill="#343399" d="M60.825,39.543c-0.178-0.316-0.483-0.508-0.812-0.508h-2.9v-6.632c0.001-0.522-0.317-0.974-0.764-1.083
		c-0.446-0.112-0.899,0.152-1.083,0.63L51.4,41.898c-0.219,0.557-0.002,1.211,0.484,1.461c0.125,0.064,0.26,0.097,0.395,0.097h2.9
		v6.632c-0.001,0.521,0.317,0.973,0.764,1.083c0.067,0.013,0.135,0.021,0.203,0.022c0.38-0.002,0.725-0.256,0.88-0.652l3.866-9.948
		C61.027,40.253,61.002,39.858,60.825,39.543z M57.113,44.882v-2.531c0-0.61-0.434-1.105-0.967-1.105h-2.378l1.411-3.636v2.531
		c0,0.61,0.434,1.105,0.967,1.105h2.378L57.113,44.882z"/>
</g>
</svg>
