<?xml version="1.0" encoding="utf-8"?>
<!-- Generator: Adobe Illustrator 16.0.0, SVG Export Plug-In . SVG Version: 6.00 Build 0)  -->
<!DOCTYPE svg PUBLIC "-//W3C//DTD SVG 1.1//EN" "http://www.w3.org/Graphics/SVG/1.1/DTD/svg11.dtd">
<svg version="1.1" id="Layer_1" xmlns="http://www.w3.org/2000/svg" xmlns:xlink="http://www.w3.org/1999/xlink" x="0px" y="0px"
	 width="94px" height="94px" viewBox="0 0 94 94" enable-background="new 0 0 94 94" xml:space="preserve">
<path fill="#F3F2FF" d="M17.644,26.246h57.738c4.31,0,7.804,4.052,7.804,9.048v30.765c0,4.996-3.494,9.049-7.804,9.049H17.644
	c-4.31,0-7.803-4.053-7.803-9.049V35.294C9.841,30.298,13.334,26.246,17.644,26.246z"/>
<g>
	<path fill="#343399" d="M70.734,59.236h-4.806c-0.509,0-0.923-0.408-0.923-0.914c0-0.505,0.414-0.916,0.923-0.916h4.806
		c1.059,0,1.918-0.851,1.918-1.897V20.228c0-1.047-0.859-1.899-1.918-1.899h-47.95c-1.057,0-1.917,0.853-1.917,1.899v35.28
		c0,1.048,0.86,1.898,1.917,1.898h4.806c0.51,0,0.923,0.41,0.923,0.915c0,0.504-0.413,0.913-0.923,0.913h-4.806
		c-2.076,0-3.763-1.672-3.763-3.727v-35.28c0-2.056,1.688-3.728,3.763-3.728h47.95c2.076,0,3.766,1.672,3.766,3.728v35.28
		C74.5,57.563,72.811,59.236,70.734,59.236z"/>
	<path fill="#343399" d="M65.929,24.113H19.945c-0.51,0-0.923-0.41-0.923-0.914c0-0.505,0.413-0.915,0.923-0.915h45.983
		c0.511,0,0.924,0.409,0.924,0.915C66.853,23.703,66.439,24.113,65.929,24.113z"/>
	<ellipse fill="#343399" cx="24.98" cy="20.307" rx="0.919" ry="0.911"/>
	<ellipse fill="#343399" cx="28.75" cy="20.307" rx="0.919" ry="0.911"/>
	<ellipse fill="#343399" cx="32.521" cy="20.307" rx="0.919" ry="0.911"/>
	<path fill="#343399" d="M57.569,21.221H41.236c-0.508,0-0.921-0.409-0.921-0.915c0-0.504,0.413-0.914,0.921-0.914h16.336
		c0.508,0,0.922,0.41,0.922,0.914C58.493,20.812,58.079,21.221,57.569,21.221z"/>
	<path fill="#343399" d="M49.531,65.896h-5.545c-1.289,0-2.338-1.039-2.338-2.316v-4.667c-0.166-0.066-0.331-0.134-0.497-0.207
		l-3.333,3.303c-0.911,0.903-2.395,0.903-3.307,0l-3.92-3.884c-0.442-0.438-0.685-1.021-0.685-1.638c0-0.62,0.242-1.2,0.685-1.639
		l3.332-3.301c-0.073-0.164-0.141-0.329-0.207-0.493h-4.711c-1.29,0-2.339-1.04-2.339-2.318v-5.491c0-1.277,1.05-2.317,2.339-2.317
		h4.711c0.066-0.164,0.134-0.328,0.207-0.493l-3.332-3.301c-0.912-0.903-0.912-2.374,0-3.276l3.92-3.883
		c0.911-0.902,2.396-0.903,3.307,0l3.333,3.302c0.166-0.072,0.331-0.141,0.497-0.205v-4.667c0-1.278,1.05-2.317,2.338-2.317h5.545
		c1.29,0,2.339,1.039,2.339,2.317v4.667c0.166,0.065,0.332,0.133,0.496,0.205l3.333-3.301c0.911-0.902,2.396-0.903,3.308,0
		l3.92,3.885c0.911,0.903,0.911,2.373,0.001,3.276l-3.333,3.302c0.07,0.165,0.143,0.328,0.206,0.493h4.713
		c1.289,0,2.339,1.039,2.339,2.316v5.492c0,1.278-1.05,2.318-2.339,2.318h-4.713c-0.064,0.163-0.136,0.328-0.206,0.493l3.332,3.3
		c0.912,0.904,0.912,2.374,0.001,3.276l-3.921,3.884c-0.91,0.904-2.396,0.904-3.308,0l-3.333-3.303
		c-0.164,0.071-0.33,0.141-0.496,0.208v4.666C51.87,64.859,50.821,65.896,49.531,65.896z M40.958,56.693
		c0.139,0,0.279,0.031,0.411,0.096c0.498,0.244,1.002,0.453,1.499,0.62c0.376,0.125,0.627,0.472,0.627,0.866v5.307
		c0,0.269,0.221,0.489,0.493,0.489h5.547c0.27,0,0.492-0.22,0.492-0.489v-5.307c0-0.395,0.25-0.74,0.626-0.866
		c0.498-0.166,1.002-0.376,1.5-0.62c0.354-0.173,0.783-0.106,1.063,0.173l3.789,3.754c0.192,0.19,0.507,0.19,0.697,0l3.92-3.884
		c0.192-0.189,0.192-0.5,0-0.69l-3.789-3.754c-0.281-0.277-0.35-0.702-0.176-1.053c0.247-0.493,0.458-0.992,0.625-1.487
		c0.128-0.372,0.481-0.621,0.876-0.621h5.356c0.271,0,0.491-0.22,0.491-0.49v-5.491c0-0.27-0.22-0.489-0.491-0.489h-5.356
		c-0.395,0-0.748-0.249-0.876-0.622c-0.167-0.495-0.379-0.995-0.625-1.485c-0.174-0.353-0.105-0.775,0.176-1.053l3.789-3.754
		c0.192-0.19,0.192-0.5,0-0.69l-3.92-3.885c-0.192-0.19-0.507-0.19-0.697,0l-3.789,3.754c-0.28,0.279-0.708,0.348-1.063,0.174
		c-0.499-0.245-1.005-0.454-1.502-0.62c-0.375-0.125-0.625-0.474-0.625-0.866v-5.304c0-0.269-0.223-0.489-0.492-0.489h-5.547
		c-0.271,0-0.493,0.219-0.493,0.489v5.306c0,0.393-0.251,0.741-0.627,0.866c-0.496,0.167-1.002,0.375-1.5,0.62
		c-0.354,0.174-0.781,0.105-1.062-0.173l-3.79-3.754c-0.193-0.19-0.506-0.19-0.697,0l-3.92,3.884
		c-0.092,0.092-0.145,0.215-0.145,0.346c0,0.13,0.051,0.252,0.145,0.345l3.79,3.754c0.281,0.277,0.351,0.701,0.175,1.053
		c-0.247,0.491-0.456,0.991-0.625,1.485c-0.127,0.373-0.48,0.622-0.875,0.622h-5.355c-0.272,0-0.493,0.219-0.493,0.489v5.493
		c0,0.269,0.221,0.488,0.493,0.488h5.355c0.395,0,0.749,0.249,0.875,0.622c0.169,0.495,0.378,0.993,0.625,1.486
		c0.176,0.351,0.106,0.774-0.175,1.053l-3.79,3.755c-0.092,0.093-0.145,0.214-0.145,0.346c0,0.129,0.051,0.253,0.145,0.345
		l3.92,3.884c0.192,0.19,0.506,0.19,0.697,0l3.79-3.754C40.481,56.785,40.717,56.693,40.958,56.693z"/>
	<path fill="#343399" d="M46.76,59.879c-7.729,0-14.017-6.229-14.017-13.887c0-7.657,6.288-13.887,14.017-13.887
		s14.017,6.23,14.017,13.887C60.776,53.649,54.489,59.879,46.76,59.879z M46.76,33.935c-6.712,0-12.172,5.41-12.172,12.058
		c0,6.647,5.46,12.058,12.172,12.058s12.169-5.41,12.169-12.058C58.932,39.344,53.472,33.935,46.76,33.935z"/>
	<path fill="#343399" d="M46.76,52.866c-3.827,0-6.939-3.084-6.939-6.873c0-0.505,0.412-0.915,0.922-0.915s0.922,0.41,0.922,0.915
		c0,2.782,2.285,5.046,5.094,5.046c2.809,0,5.093-2.264,5.093-5.046c0-2.783-2.284-5.045-5.093-5.045
		c-0.51,0-0.924-0.409-0.924-0.915c0-0.505,0.414-0.914,0.924-0.914c3.827,0,6.938,3.084,6.938,6.874
		C53.698,49.782,50.587,52.866,46.76,52.866z"/>
</g>
</svg>
