<?xml version="1.0" encoding="utf-8"?>
<!-- Generator: Adobe Illustrator 16.0.0, SVG Export Plug-In . SVG Version: 6.00 Build 0)  -->
<!DOCTYPE svg PUBLIC "-//W3C//DTD SVG 1.1//EN" "http://www.w3.org/Graphics/SVG/1.1/DTD/svg11.dtd">
<svg version="1.1" id="Capa_1" xmlns="http://www.w3.org/2000/svg" xmlns:xlink="http://www.w3.org/1999/xlink" x="0px" y="0px"
	 width="512px" height="512px" viewBox="0 0 512 512" enable-background="new 0 0 512 512" xml:space="preserve">
<g>
	<g>
		<circle fill="#C4A2FC" cx="256" cy="256" r="256"/>
	</g>
</g>
<g>
	<path fill="#F9FCFF" d="M214.858,340.646c-16.252-11.608-26.745-29.931-26.745-50.558h-0.005V155.064l-36.484-14.834l0.011,149.857
		h-0.011c0,53.979,46.736,97.738,104.375,97.738c7.742,0,15.28-0.813,22.542-2.313C238.792,373.544,220.036,348.666,214.858,340.646
		z"/>
	<linearGradient id="SVGID_1_" gradientUnits="userSpaceOnUse" x1="296.04" y1="140.2305" x2="296.04" y2="382.519">
		<stop  offset="0" style="stop-color:#808184"/>
		<stop  offset="0.3924" style="stop-color:#616163"/>
		<stop  offset="0.7709" style="stop-color:#49494A"/>
		<stop  offset="1" style="stop-color:#404041"/>
	</linearGradient>
	<path fill="url(#SVGID_1_)" d="M360.376,140.23l-36.491,14.842v135.016c0,35.109-30.393,63.569-67.886,63.569
		c-8.558,0-16.745-1.496-24.295-4.206c17.963,19.937,45.302,29.479,58.215,33.067c40.993-13.187,70.457-49.576,70.457-92.431h-0.017
		L360.376,140.23z"/>
</g>
<g>
	<path fill="#F9FCFF" d="M279.404,317.619c9.248-6.608,15.226-17.027,15.226-28.768l0,0v-76.822l20.749-8.438v85.261l0,0
		c0,30.714-26.583,55.602-59.38,55.602c-4.404,0-8.688-0.455-12.825-1.306C265.789,336.334,276.463,322.181,279.404,317.619z"/>
	
		<linearGradient id="SVGID_2_" gradientUnits="userSpaceOnUse" x1="539.7139" y1="203.5913" x2="539.7139" y2="341.4399" gradientTransform="matrix(-1 0 0 1 772.9336 0)">
		<stop  offset="0" style="stop-color:#808184"/>
		<stop  offset="0.3924" style="stop-color:#616163"/>
		<stop  offset="0.7709" style="stop-color:#49494A"/>
		<stop  offset="1" style="stop-color:#404041"/>
	</linearGradient>
	<path fill="url(#SVGID_2_)" d="M196.619,203.591l20.754,8.443v76.817c0,19.977,17.292,36.17,38.625,36.17
		c4.875,0,9.533-0.851,13.822-2.394c-10.219,11.344-25.772,16.772-33.12,18.813c-23.314-7.504-40.082-28.203-40.082-52.589l0,0
		V203.591z"/>
</g>
<g>
	<path fill="#F9FCFF" d="M243.612,302.983c-4.899-3.496-8.061-9.015-8.061-15.228l0,0v-40.663l-10.986-4.463v45.126l0,0
		c0,16.265,14.077,29.437,31.433,29.437c2.331,0,4.605-0.247,6.791-0.7C250.815,312.896,245.168,305.401,243.612,302.983z"/>
	<linearGradient id="SVGID_3_" gradientUnits="userSpaceOnUse" x1="268.0566" y1="242.6299" x2="268.0566" y2="315.5942">
		<stop  offset="0" style="stop-color:#808184"/>
		<stop  offset="0.3924" style="stop-color:#616163"/>
		<stop  offset="0.7709" style="stop-color:#49494A"/>
		<stop  offset="1" style="stop-color:#404041"/>
	</linearGradient>
	<path fill="url(#SVGID_3_)" d="M287.434,242.63l-10.991,4.465v40.661c0,10.58-9.151,19.148-20.444,19.148
		c-2.576,0-5.039-0.452-7.319-1.267c5.41,6,13.649,8.876,17.534,9.956c12.35-3.966,21.221-14.931,21.221-27.838h-0.005
		L287.434,242.63z"/>
</g>
</svg>
